<?xml version="1.0" encoding="UTF-8" standalone="no"?>
<!-- Created with Inkscape (http://www.inkscape.org/) -->

<svg
   xmlns:dc="http://purl.org/dc/elements/1.1/"
   xmlns:cc="http://creativecommons.org/ns#"
   xmlns:rdf="http://www.w3.org/1999/02/22-rdf-syntax-ns#"
   xmlns:svg="http://www.w3.org/2000/svg"
   xmlns="http://www.w3.org/2000/svg"
   xmlns:sodipodi="http://sodipodi.sourceforge.net/DTD/sodipodi-0.dtd"
   xmlns:inkscape="http://www.inkscape.org/namespaces/inkscape"
   width="162.35907mm"
   height="47.705959mm"
   viewBox="0 0 162.35907 47.705959"
   version="1.1"
   id="svg8"
   inkscape:version="0.92.3 (2405546, 2018-03-11)"
   sodipodi:docname="logo-hover.svg">
  <defs
     id="defs2" />
  <sodipodi:namedview
     id="base"
     pagecolor="#ffffff"
     bordercolor="#666666"
     borderopacity="1.0"
     inkscape:pageopacity="0.0"
     inkscape:pageshadow="2"
     inkscape:zoom="0.7"
     inkscape:cx="358.75858"
     inkscape:cy="-0.45453209"
     inkscape:document-units="mm"
     inkscape:current-layer="g138"
     showgrid="false"
     inkscape:window-width="1920"
     inkscape:window-height="1017"
     inkscape:window-x="-8"
     inkscape:window-y="-8"
     inkscape:window-maximized="1"
     fit-margin-top="0"
     fit-margin-left="0"
     fit-margin-right="0"
     fit-margin-bottom="0" />
  <metadata
     id="metadata5">
    <rdf:RDF>
      <cc:Work
         rdf:about="">
        <dc:format>image/svg+xml</dc:format>
        <dc:type
           rdf:resource="http://purl.org/dc/dcmitype/StillImage" />
        <dc:title></dc:title>
      </cc:Work>
    </rdf:RDF>
  </metadata>
  <g
     inkscape:label="Layer 1"
     inkscape:groupmode="layer"
     id="layer1"
     transform="translate(-23.820464,-124.647)">
    <text
       xml:space="preserve"
       style="font-style:normal;font-weight:normal;font-size:10.58333302px;line-height:1.25;font-family:sans-serif;letter-spacing:0px;word-spacing:0px;fill:#000000;fill-opacity:1;stroke:none;stroke-width:0.26458332"
       x="21.451616"
       y="171.89407"
       id="text12"><tspan
         sodipodi:role="line"
         id="tspan10"
         x="21.451616"
         y="171.89407"
         style="font-style:normal;font-variant:normal;font-weight:normal;font-stretch:normal;font-size:25.39999962px;font-family:'Lucida Sans Unicode';-inkscape-font-specification:'Lucida Sans Unicode, Normal';font-variant-ligatures:normal;font-variant-caps:normal;font-variant-numeric:normal;font-feature-settings:normal;text-align:start;writing-mode:lr-tb;text-anchor:start;stroke-width:0.26458332">MASTERMIND</tspan></text>
    <g
       id="g138"
       transform="matrix(0.0551027,0,0,0.0551213,132.7656,124.64253)">
      <g
         id="g83" />
      <g
         id="g85" />
      <g
         id="g87" />
      <g
         id="g89" />
      <g
         id="g91" />
      <g
         id="g93" />
      <g
         id="g95" />
      <g
         id="g97" />
      <g
         id="g99" />
      <g
         id="g101" />
      <g
         id="g103" />
      <g
         id="g105" />
      <g
         id="g107" />
      <g
         id="g109" />
      <g
         id="g111" />
      <g
         id="g3950"
         transform="matrix(0.99998534,0,0,1.034474,0.00725917,-8.2795079)">
        <path
           id="path3844"
           d="M 350.72,264.082 H 352 c -32,48 -28.72,52.32 -36.48,89.68 -2.64,12.88 -13.6,22.32 -26.8,22.32 h -97.44 c -13.2,0 -24.16,-9.44 -26.8,-22.32 -7.76,-37.36 -4.48,-41.68 -36.48,-89.68 h 1.28 c -25.6,-27.12 -41.28,-63.76 -41.28,-104 0,-83.92 68.08,-152 152,-152 83.92,0 152,68.08 152,152 0,40.24 -15.68,76.88 -41.28,104 z"
           style="fill:#cff2f8"
           inkscape:connector-curvature="0" />
        <path
           id="path3846"
           d="m 224,240.082 v -184 h -24 c -8.837,0 -16,7.163 -16,16 v 8 h -16 c -8.837,0 -16,7.163 -16,16 v 32 h -8 c -8.837,0 -16,7.163 -16,16 v 56 h 32 v 24 c 0,8.837 7.163,16 16,16 z"
           style="fill:#f88756"
           inkscape:connector-curvature="0" />
        <path
           id="path3848"
           d="m 256,240.082 v -184 h 24 c 8.837,0 16,7.163 16,16 v 8 h 16 c 8.837,0 16,7.163 16,16 v 32 h 8 c 8.837,0 16,7.163 16,16 v 40 h -32 v 40 c 0,8.837 -7.163,16 -16,16 z"
           style="fill:#3f708d"
           inkscape:connector-curvature="0" />
        <g
           id="g3854">
          <path
             id="path3850"
             d="m 296,200.082 h -16 v -16 c 0,-4.418 3.578,-8 8,-8 h 32 v 16 h -24 z"
             style="fill:#2e5166"
             inkscape:connector-curvature="0" />
          <path
             id="path3852"
             d="m 296,136.082 h -16 v -16 h -24 v -16 h 32 c 4.422,0 8,3.582 8,8 z"
             style="fill:#2e5166"
             inkscape:connector-curvature="0" />
        </g>
        <g
           id="g3860">
          <path
             id="path3856"
             d="m 168,200.082 h -16 v -32 c 0,-4.418 3.578,-8 8,-8 h 24 v 16 h -16 z"
             style="fill:#e15d2d"
             inkscape:connector-curvature="0" />
          <rect
             id="rect3858"
             height="24"
             width="16"
             style="fill:#e15d2d"
             y="80.082001"
             x="176" />
        </g>
        <g
           id="g3868">
          <path
             id="path3862"
             d="m 192,376.082 h 96 c 8.837,0 16,7.163 16,16 v 0 c 0,8.837 -7.163,16 -16,16 h -96 c -8.837,0 -16,-7.163 -16,-16 v 0 c 0,-8.837 7.163,-16 16,-16 z"
             style="fill:#ffbe00"
             inkscape:connector-curvature="0" />
          <path
             id="path3864"
             d="m 200,408.082 h 80 c 8.837,0 16,7.163 16,16 v 0 c 0,8.837 -7.163,16 -16,16 h -80 c -8.837,0 -16,-7.163 -16,-16 v 0 c 0,-8.837 7.163,-16 16,-16 z"
             style="fill:#ffbe00"
             inkscape:connector-curvature="0" />
          <path
             id="path3866"
             d="m 208,440.082 h 64 c 8.837,0 16,7.163 16,16 v 0 c 0,8.837 -7.163,16 -16,16 h -64 c -8.837,0 -16,-7.163 -16,-16 v 0 c 0,-8.837 7.163,-16 16,-16 z"
             style="fill:#ffbe00"
             inkscape:connector-curvature="0" />
        </g>
        <rect
           id="rect3870"
           height="138.104"
           width="15.992"
           style="fill:#e15d2d"
           transform="matrix(-0.9848,0.1738,-0.1738,-0.9848,458.43,576.0224)"
           y="239.03"
           x="196" />
        <rect
           id="rect3872"
           height="15.992"
           width="138.104"
           style="fill:#2e5166"
           transform="matrix(-0.1739,0.9848,-0.9848,-0.1739,627.371,89.8524)"
           y="300.07501"
           x="206.946" />
        <g
           id="g3878">
          <path
             id="path3874"
             d="m 448,288.082 c -0.148,0 -0.305,-0.004 -0.453,-0.012 -3.438,-0.199 -6.359,-2.566 -7.266,-5.883 l -18.492,-67.801 -14.633,29.273 c -1.359,2.711 -4.125,4.422 -7.156,4.422 h -32 v -16 h 27.055 l 21.789,-43.578 c 1.484,-2.961 4.586,-4.742 7.945,-4.383 3.297,0.328 6.055,2.656 6.93,5.855 l 17.719,64.973 7.133,-17.84 c 1.242,-3.09 4.453,-4.926 7.594,-5.027 l 16,0.32 -0.328,16 -10.461,-0.211 -13.945,34.863 c -1.22,3.049 -4.173,5.029 -7.431,5.029 z"
             style="fill:#e7343a"
             inkscape:connector-curvature="0" />
          <path
             id="path3876"
             d="m 80,288.082 c -0.148,0 -0.305,-0.004 -0.453,-0.012 -3.438,-0.199 -6.359,-2.566 -7.266,-5.883 L 53.789,214.386 39.156,243.66 c -1.359,2.711 -4.125,4.422 -7.156,4.422 H 0 v -16 h 27.055 l 21.789,-43.578 c 1.484,-2.961 4.555,-4.742 7.945,-4.383 3.297,0.328 6.055,2.656 6.93,5.855 l 17.719,64.973 7.133,-17.84 c 1.242,-3.09 4.375,-4.926 7.594,-5.027 l 16,0.32 -0.328,16 -10.461,-0.211 -13.946,34.864 c -1.219,3.047 -4.172,5.027 -7.43,5.027 z"
             style="fill:#e7343a"
             inkscape:connector-curvature="0" />
        </g>
        <g
           id="g3880" />
        <g
           id="g3882" />
        <g
           id="g3884" />
        <g
           id="g3886" />
        <g
           id="g3888" />
        <g
           id="g3890" />
        <g
           id="g3892" />
        <g
           id="g3894" />
        <g
           id="g3896" />
        <g
           id="g3898" />
        <g
           id="g3900" />
        <g
           id="g3902" />
        <g
           id="g3904" />
        <g
           id="g3906" />
        <g
           id="g3908" />
      </g>
    </g>
  </g>
</svg>
