<?xml version="1.0" encoding="UTF-8" standalone="no"?>
<!-- Created with Inkscape (http://www.inkscape.org/) -->

<svg
   xmlns:dc="http://purl.org/dc/elements/1.1/"
   xmlns:cc="http://creativecommons.org/ns#"
   xmlns:rdf="http://www.w3.org/1999/02/22-rdf-syntax-ns#"
   xmlns:svg="http://www.w3.org/2000/svg"
   xmlns="http://www.w3.org/2000/svg"
   xmlns:sodipodi="http://sodipodi.sourceforge.net/DTD/sodipodi-0.dtd"
   xmlns:inkscape="http://www.inkscape.org/namespaces/inkscape"
   width="162.35907mm"
   height="47.70591mm"
   viewBox="0 0 162.35907 47.70591"
   version="1.1"
   id="svg8"
   inkscape:version="0.92.3 (2405546, 2018-03-11)"
   sodipodi:docname="logo.svg">
  <defs
     id="defs2" />
  <sodipodi:namedview
     id="base"
     pagecolor="#ffffff"
     bordercolor="#666666"
     borderopacity="1.0"
     inkscape:pageopacity="0.0"
     inkscape:pageshadow="2"
     inkscape:zoom="0.7"
     inkscape:cx="182.33001"
     inkscape:cy="-0.45453209"
     inkscape:document-units="mm"
     inkscape:current-layer="layer1"
     showgrid="false"
     inkscape:window-width="1920"
     inkscape:window-height="1017"
     inkscape:window-x="-8"
     inkscape:window-y="-8"
     inkscape:window-maximized="1"
     fit-margin-top="0"
     fit-margin-left="0"
     fit-margin-right="0"
     fit-margin-bottom="0" />
  <metadata
     id="metadata5">
    <rdf:RDF>
      <cc:Work
         rdf:about="">
        <dc:format>image/svg+xml</dc:format>
        <dc:type
           rdf:resource="http://purl.org/dc/dcmitype/StillImage" />
        <dc:title></dc:title>
      </cc:Work>
    </rdf:RDF>
  </metadata>
  <g
     inkscape:label="Layer 1"
     inkscape:groupmode="layer"
     id="layer1"
     transform="translate(-23.820464,-124.64705)">
    <text
       xml:space="preserve"
       style="font-style:normal;font-weight:normal;font-size:10.58333302px;line-height:1.25;font-family:sans-serif;letter-spacing:0px;word-spacing:0px;fill:#000000;fill-opacity:1;stroke:none;stroke-width:0.26458332"
       x="21.451616"
       y="171.89407"
       id="text12"><tspan
         sodipodi:role="line"
         id="tspan10"
         x="21.451616"
         y="171.89407"
         style="font-style:normal;font-variant:normal;font-weight:normal;font-stretch:normal;font-size:25.39999962px;font-family:'Lucida Sans Unicode';-inkscape-font-specification:'Lucida Sans Unicode, Normal';font-variant-ligatures:normal;font-variant-caps:normal;font-variant-numeric:normal;font-feature-settings:normal;text-align:start;writing-mode:lr-tb;text-anchor:start;stroke-width:0.26458332">MASTERMIND</tspan></text>
    <g
       id="g138"
       transform="matrix(0.0551027,0,0,0.0551213,132.7656,124.64253)">
      <g
         id="g81">
        <g
           id="g79">
          <path
             id="path77"
             d="m 464.164,232.082 c -3.141,0.102 -6.352,1.938 -7.594,5.027 l -7.133,17.84 -17.719,-64.973 c -0.875,-3.199 -3.633,-5.527 -6.93,-5.855 -3.359,-0.359 -6.461,1.422 -7.945,4.383 l -21.789,43.578 h -12.249 c 11.185,-22.096 17.194,-46.638 17.194,-72 0,-88.223 -71.773,-160 -160,-160 -88.227,0 -160,71.777 -160,160 0,25.371 6.015,49.92 17.206,72.021 l -1.042,-0.021 c -3.219,0.102 -6.352,1.938 -7.594,5.027 l -7.133,17.84 -17.719,-64.973 c -0.875,-3.199 -3.633,-5.527 -6.93,-5.855 -3.391,-0.359 -6.461,1.422 -7.945,4.383 L 27.053,232.082 H 0 v 16 h 32 c 3.031,0 5.797,-1.711 7.156,-4.422 l 14.633,-29.273 18.492,67.801 c 0.906,3.316 3.828,5.684 7.266,5.883 0.148,0.008 0.305,0.012 0.453,0.012 3.258,0 6.211,-1.98 7.43,-5.027 l 13.945,-34.863 5.367,0.108 c 4.106,6.168 8.52,12.16 13.508,17.767 0.219,0.859 0.586,1.691 1.094,2.453 26.258,39.383 27.789,47.543 32.344,71.77 0.844,4.449 1.773,9.391 2.953,15.078 2.036,9.923 7.845,18.002 15.669,23.056 -2.702,3.883 -4.31,8.58 -4.31,13.659 0,8.523 4.497,15.975 11.211,20.233 -1.985,3.492 -3.211,7.471 -3.211,11.767 0,8.523 4.497,15.975 11.211,20.233 -1.985,3.492 -3.211,7.471 -3.211,11.767 0,13.234 10.766,24 24,24 h 64 c 13.234,0 24,-10.766 24,-24 0,-4.296 -1.226,-8.274 -3.211,-11.767 6.714,-4.259 11.211,-11.71 11.211,-20.233 0,-4.296 -1.226,-8.274 -3.211,-11.767 6.714,-4.259 11.211,-11.71 11.211,-20.233 0,-5.079 -1.607,-9.775 -4.309,-13.658 7.824,-5.052 13.632,-13.125 15.668,-23.037 1.18,-5.707 2.109,-10.648 2.953,-15.098 4.555,-24.227 6.086,-32.387 32.344,-71.77 0.508,-0.762 0.875,-1.594 1.094,-2.453 5.047,-5.673 9.51,-11.737 13.654,-17.984 H 400 c 3.031,0 5.797,-1.711 7.156,-4.422 l 14.633,-29.273 18.492,67.801 c 0.906,3.316 3.828,5.684 7.266,5.883 0.148,0.008 0.305,0.012 0.453,0.012 3.258,0 6.211,-1.98 7.43,-5.027 l 13.945,-34.863 10.461,0.211 0.328,-16 z M 272,464.082 h -64 c -4.414,0 -8,-3.59 -8,-8 0,-4.41 3.586,-8 8,-8 h 64 c 4.414,0 8,3.59 8,8 0,4.41 -3.586,8 -8,8 z m 8,-32 h -8 -64 -8 c -4.414,0 -8,-3.59 -8,-8 0,-4.41 3.586,-8 8,-8 h 80 c 4.414,0 8,3.59 8,8 0,4.41 -3.586,8 -8,8 z m 8,-32 h -8 -80 -8 c -4.414,0 -8,-3.59 -8,-8 0,-4.41 3.586,-8 8,-8 h 96 c 4.414,0 8,3.59 8,8 0,4.41 -3.586,8 -8,8 z M 344.898,258.59 c -1.305,1.387 -2.047,3.164 -2.164,4.992 -25.586,38.84 -27.563,49.379 -32.148,73.75 -0.82,4.359 -1.734,9.207 -2.898,14.824 -1.922,9.375 -9.727,15.926 -18.969,15.926 H 288 273.532 l 21.176,-120 H 304 c 13.234,0 24,-10.766 24,-24 v -32 h 24 c 4.422,0 8,-3.582 8,-8 v -40 c 0,-13.234 -10.766,-24 -24,-24 v -24 c 0,-13.234 -10.766,-24 -24,-24 h -8 c 0,-13.234 -10.766,-24 -24,-24 h -24 c -4.422,0 -8,3.582 -8,8 v 184 c 0,4.418 3.578,8 8,8 h 22.468 l -21.176,120 h -34.583 l -21.176,-120 H 224 c 4.422,0 8,-3.582 8,-8 v -184 c 0,-4.418 -3.578,-8 -8,-8 h -24 c -13.234,0 -24,10.766 -24,24 h -8 c -13.234,0 -24,10.766 -24,24 v 24 c -13.234,0 -24,10.766 -24,24 v 56 c 0,4.418 3.578,8 8,8 h 24 v 16 c 0,13.234 10.766,24 24,24 h 9.292 l 21.176,120 H 192 191.281 c -9.242,0 -17.047,-6.551 -18.969,-15.945 -1.164,-5.598 -2.078,-10.445 -2.898,-14.805 -4.586,-24.371 -6.563,-34.91 -32.148,-73.75 -0.117,-1.828 -0.859,-3.605 -2.164,-4.992 C 109.883,231.879 96,196.898 96,160.082 c 0,-79.402 64.602,-144 144,-144 79.398,0 144,64.598 144,144 0,36.816 -13.883,71.797 -39.102,98.508 z M 296,136.082 v -24 c 0,-4.418 -3.578,-8 -8,-8 h -24 v -40 h 16 c 4.414,0 8,3.59 8,8 v 8 c 0,4.418 3.578,8 8,8 h 16 c 4.414,0 8,3.59 8,8 v 32 c 0,4.418 3.578,8 8,8 h 8 c 4.414,0 8,3.59 8,8 v 32 h -24 -32 c -4.422,0 -8,3.582 -8,8 v 16 h 16 v -8 h 16 v 32 c 0,4.41 -3.586,8 -8,8 h -40 v -112 h 16 v 16 z m -136,24 c -4.422,0 -8,3.582 -8,8 v 24 h -16 v -48 c 0,-4.41 3.586,-8 8,-8 h 8 c 4.422,0 8,-3.582 8,-8 v -32 c 0,-4.41 3.586,-8 8,-8 h 8 v 16 h 16 v -24 -8 c 0,-4.41 3.586,-8 8,-8 h 16 v 168 h -40 c -4.414,0 -8,-3.59 -8,-8 v -24 -24 h 16 v -16 z"
             inkscape:connector-curvature="0" />
        </g>
      </g>
      <g
         id="g83" />
      <g
         id="g85" />
      <g
         id="g87" />
      <g
         id="g89" />
      <g
         id="g91" />
      <g
         id="g93" />
      <g
         id="g95" />
      <g
         id="g97" />
      <g
         id="g99" />
      <g
         id="g101" />
      <g
         id="g103" />
      <g
         id="g105" />
      <g
         id="g107" />
      <g
         id="g109" />
      <g
         id="g111" />
    </g>
  </g>
</svg>
